<svg width="82" height="13" viewBox="0 0 82 13" fill="none" xmlns="http://www.w3.org/2000/svg">
<path d="M3.84216 8.57639L6.10364 0.626014H7.19916L6.56532 3.71696L4.13169 12.0195H3.04399L3.84216 8.57639ZM1.50243 0.626014L3.30222 8.41989L3.84216 12.0195H2.76229L0 0.626014H1.50243ZM10.1258 8.41206L11.8864 0.626014H13.3967L10.6422 12.0195H9.56236L10.1258 8.41206ZM7.36349 0.626014L9.56236 8.57639L10.3605 12.0195H9.27283L6.92528 3.71696L6.28361 0.626014H7.36349ZM18.1153 12.176C17.5258 12.176 16.9911 12.0769 16.5111 11.8786C16.0364 11.6752 15.6269 11.3908 15.2826 11.0257C14.9435 10.6605 14.6826 10.2275 14.5 9.72669C14.3175 9.22588 14.2262 8.67812 14.2262 8.0834V7.75475C14.2262 7.06613 14.3279 6.45316 14.5313 5.91583C14.7348 5.37329 15.0113 4.91421 15.3608 4.5386C15.7103 4.16299 16.1068 3.87868 16.5502 3.68566C16.9937 3.49264 17.4527 3.39613 17.9275 3.39613C18.5326 3.39613 19.0543 3.50046 19.4925 3.70913C19.9359 3.9178 20.2985 4.20994 20.5802 4.58555C20.8619 4.95594 21.0706 5.39415 21.2062 5.90018C21.3419 6.40099 21.4097 6.94875 21.4097 7.54347V8.19296H15.0869V7.01136H19.962V6.9018C19.9412 6.5262 19.8629 6.16102 19.7273 5.80628C19.5968 5.45154 19.3882 5.1594 19.1013 4.92986C18.8143 4.70032 18.4231 4.58555 17.9275 4.58555C17.5988 4.58555 17.2962 4.65598 17.0198 4.79683C16.7433 4.93247 16.5059 5.13592 16.3077 5.4072C16.1094 5.67847 15.9555 6.00973 15.846 6.40099C15.7364 6.79225 15.6816 7.2435 15.6816 7.75475V8.0834C15.6816 8.4851 15.7364 8.86331 15.846 9.21806C15.9607 9.56758 16.1251 9.87537 16.339 10.1414C16.5581 10.4075 16.8215 10.6162 17.1293 10.7674C17.4423 10.9187 17.7971 10.9944 18.1935 10.9944C18.7048 10.9944 19.1378 10.89 19.4925 10.6814C19.8473 10.4727 20.1576 10.1936 20.4237 9.84407L21.3001 10.5405C21.1175 10.817 20.8854 11.0804 20.6037 11.3309C20.322 11.5813 19.9751 11.7847 19.5629 11.9412C19.156 12.0977 18.6735 12.176 18.1153 12.176ZM24.6728 3.55263V12.0195H23.2173V3.55263H24.6728ZM23.1077 1.3068C23.1077 1.07205 23.1782 0.873811 23.319 0.712091C23.4651 0.550371 23.679 0.46951 23.9607 0.46951C24.2372 0.46951 24.4485 0.550371 24.5945 0.712091C24.7458 0.873811 24.8215 1.07205 24.8215 1.3068C24.8215 1.53113 24.7458 1.72415 24.5945 1.88587C24.4485 2.04237 24.2372 2.12062 23.9607 2.12062C23.679 2.12062 23.4651 2.04237 23.319 1.88587C23.1782 1.72415 23.1077 1.53113 23.1077 1.3068ZM30.5417 3.55263V4.6638H25.9639V3.55263H30.5417ZM27.5133 1.49461H28.961V9.92232C28.961 10.2092 29.0053 10.4257 29.094 10.5718C29.1827 10.7179 29.2975 10.8144 29.4383 10.8613C29.5792 10.9083 29.7304 10.9318 29.8922 10.9318C30.0122 10.9318 30.1374 10.9213 30.2678 10.9005C30.4034 10.8744 30.5051 10.8535 30.573 10.8379L30.5808 12.0195C30.466 12.056 30.3147 12.0899 30.1269 12.1212C29.9443 12.1577 29.7226 12.176 29.4618 12.176C29.107 12.176 28.781 12.1055 28.4836 11.9647C28.1863 11.8238 27.9489 11.5891 27.7715 11.2604C27.5994 10.9266 27.5133 10.4779 27.5133 9.9145V1.49461ZM35.7532 12.176C35.1637 12.176 34.629 12.0769 34.1491 11.8786C33.6743 11.6752 33.2648 11.3908 32.9205 11.0257C32.5814 10.6605 32.3206 10.2275 32.138 9.72669C31.9554 9.22588 31.8641 8.67812 31.8641 8.0834V7.75475C31.8641 7.06613 31.9658 6.45316 32.1693 5.91583C32.3727 5.37329 32.6492 4.91421 32.9988 4.5386C33.3483 4.16299 33.7448 3.87868 34.1882 3.68566C34.6316 3.49264 35.0907 3.39613 35.5654 3.39613C36.1706 3.39613 36.6922 3.50046 37.1305 3.70913C37.5739 3.9178 37.9364 4.20994 38.2182 4.58555C38.4999 4.95594 38.7085 5.39415 38.8442 5.90018C38.9798 6.40099 39.0476 6.94875 39.0476 7.54347V8.19296H32.7249V7.01136H37.6V6.9018C37.5791 6.5262 37.5008 6.16102 37.3652 5.80628C37.2348 5.45154 37.0261 5.1594 36.7392 4.92986C36.4523 4.70032 36.061 4.58555 35.5654 4.58555C35.2368 4.58555 34.9342 4.65598 34.6577 4.79683C34.3812 4.93247 34.1438 5.13592 33.9456 5.4072C33.7474 5.67847 33.5935 6.00973 33.4839 6.40099C33.3744 6.79225 33.3196 7.2435 33.3196 7.75475V8.0834C33.3196 8.4851 33.3744 8.86331 33.4839 9.21806C33.5987 9.56758 33.763 9.87537 33.9769 10.1414C34.196 10.4075 34.4595 10.6162 34.7672 10.7674C35.0803 10.9187 35.435 10.9944 35.8315 10.9944C36.3427 10.9944 36.7757 10.89 37.1305 10.6814C37.4852 10.4727 37.7956 10.1936 38.0616 9.84407L38.9381 10.5405C38.7555 10.817 38.5233 11.0804 38.2416 11.3309C37.9599 11.5813 37.613 11.7847 37.2009 11.9412C36.794 12.0977 36.3114 12.176 35.7532 12.176ZM42.1855 4.88291V12.0195H40.7379V3.55263H42.1464L42.1855 4.88291ZM44.8304 3.50568L44.8226 4.85161C44.7026 4.82552 44.5878 4.80987 44.4783 4.80466C44.374 4.79422 44.254 4.78901 44.1183 4.78901C43.7845 4.78901 43.4897 4.84117 43.2341 4.94551C42.9785 5.04985 42.762 5.19592 42.5846 5.38372C42.4072 5.57152 42.2664 5.79585 42.162 6.05668C42.0629 6.31231 41.9977 6.59401 41.9664 6.9018L41.5595 7.13656C41.5595 6.62531 41.6091 6.14537 41.7082 5.69673C41.8125 5.24808 41.9716 4.85161 42.1855 4.5073C42.3994 4.15778 42.6707 3.8865 42.9993 3.69348C43.3332 3.49524 43.7297 3.39613 44.1888 3.39613C44.2931 3.39613 44.4131 3.40917 44.5487 3.43525C44.6844 3.45612 44.7783 3.47959 44.8304 3.50568ZM47.7414 0V12.0195H46.2859V0H47.7414ZM53.579 12.176C52.9895 12.176 52.4548 12.0769 51.9748 11.8786C51.5001 11.6752 51.0906 11.3908 50.7463 11.0257C50.4072 10.6605 50.1463 10.2275 49.9637 9.72669C49.7811 9.22588 49.6899 8.67812 49.6899 8.0834V7.75475C49.6899 7.06613 49.7916 6.45316 49.995 5.91583C50.1985 5.37329 50.475 4.91421 50.8245 4.5386C51.174 4.16299 51.5705 3.87868 52.0139 3.68566C52.4574 3.49264 52.9164 3.39613 53.3912 3.39613C53.9963 3.39613 54.518 3.50046 54.9562 3.70913C55.3996 3.9178 55.7622 4.20994 56.0439 4.58555C56.3256 4.95594 56.5343 5.39415 56.6699 5.90018C56.8055 6.40099 56.8734 6.94875 56.8734 7.54347V8.19296H50.5506V7.01136H55.4257V6.9018C55.4048 6.5262 55.3266 6.16102 55.191 5.80628C55.0605 5.45154 54.8519 5.1594 54.5649 4.92986C54.278 4.70032 53.8868 4.58555 53.3912 4.58555C53.0625 4.58555 52.7599 4.65598 52.4834 4.79683C52.207 4.93247 51.9696 5.13592 51.7714 5.4072C51.5731 5.67847 51.4192 6.00973 51.3097 6.40099C51.2001 6.79225 51.1453 7.2435 51.1453 7.75475V8.0834C51.1453 8.4851 51.2001 8.86331 51.3097 9.21806C51.4244 9.56758 51.5888 9.87537 51.8027 10.1414C52.0218 10.4075 52.2852 10.6162 52.593 10.7674C52.906 10.9187 53.2607 10.9944 53.6572 10.9944C54.1685 10.9944 54.6015 10.89 54.9562 10.6814C55.3109 10.4727 55.6213 10.1936 55.8874 9.84407L56.7638 10.5405C56.5812 10.817 56.3491 11.0804 56.0674 11.3309C55.7857 11.5813 55.4388 11.7847 55.0266 11.9412C54.6197 12.0977 54.1372 12.176 53.579 12.176ZM63.4935 9.77364C63.4935 9.56497 63.4465 9.37195 63.3526 9.19458C63.2639 9.01199 63.0787 8.84766 62.797 8.70159C62.5205 8.55031 62.1032 8.41989 61.545 8.31033C61.0755 8.21122 60.6503 8.09384 60.2695 7.9582C59.8939 7.82257 59.5731 7.65824 59.307 7.46522C59.0462 7.2722 58.8453 7.04527 58.7045 6.78443C58.5636 6.52359 58.4932 6.21841 58.4932 5.86888C58.4932 5.53501 58.5662 5.21939 58.7123 4.92203C58.8636 4.62468 59.0748 4.36123 59.3461 4.13169C59.6226 3.90215 59.9539 3.72217 60.3399 3.59175C60.726 3.46134 61.1563 3.39613 61.6311 3.39613C62.3093 3.39613 62.8883 3.51611 63.3683 3.75608C63.8482 3.99606 64.216 4.31689 64.4716 4.71858C64.7272 5.11506 64.855 5.55587 64.855 6.04103H63.4074C63.4074 5.80628 63.337 5.57935 63.1961 5.36024C63.0605 5.13592 62.8596 4.95073 62.5936 4.80466C62.3327 4.65859 62.0119 4.58555 61.6311 4.58555C61.2294 4.58555 60.9033 4.64815 60.6529 4.77336C60.4077 4.89334 60.2278 5.04724 60.113 5.23504C60.0034 5.42285 59.9487 5.62108 59.9487 5.82975C59.9487 5.98626 59.9747 6.12711 60.0269 6.25231C60.0843 6.3723 60.1834 6.48446 60.3243 6.5888C60.4651 6.68792 60.6634 6.78182 60.919 6.8705C61.1746 6.95919 61.5007 7.04787 61.8971 7.13656C62.591 7.29306 63.1622 7.48087 63.6108 7.69997C64.0595 7.91908 64.3934 8.18774 64.6125 8.50596C64.8316 8.82419 64.9411 9.21023 64.9411 9.66409C64.9411 10.0345 64.8629 10.3736 64.7064 10.6814C64.5551 10.9892 64.3334 11.2552 64.0412 11.4795C63.7543 11.6986 63.41 11.8708 63.0083 11.996C62.6118 12.116 62.1658 12.176 61.6702 12.176C60.9242 12.176 60.293 12.0429 59.7765 11.7769C59.26 11.5108 58.8688 11.1665 58.6027 10.744C58.3367 10.3214 58.2036 9.87537 58.2036 9.40586H59.6591C59.68 9.80233 59.7948 10.118 60.0034 10.3527C60.2121 10.5822 60.4677 10.7466 60.7703 10.8457C61.0729 10.9396 61.3728 10.9865 61.6702 10.9865C62.0667 10.9865 62.3979 10.9344 62.664 10.83C62.9353 10.7257 63.1413 10.5822 63.2822 10.3997C63.423 10.2171 63.4935 10.0084 63.4935 9.77364ZM70.3561 12.176C69.7666 12.176 69.2319 12.0769 68.752 11.8786C68.2773 11.6752 67.8677 11.3908 67.5234 11.0257C67.1843 10.6605 66.9235 10.2275 66.7409 9.72669C66.5583 9.22588 66.467 8.67812 66.467 8.0834V7.75475C66.467 7.06613 66.5688 6.45316 66.7722 5.91583C66.9757 5.37329 67.2522 4.91421 67.6017 4.5386C67.9512 4.16299 68.3477 3.87868 68.7911 3.68566C69.2345 3.49264 69.6936 3.39613 70.1683 3.39613C70.7735 3.39613 71.2952 3.50046 71.7334 3.70913C72.1768 3.9178 72.5394 4.20994 72.8211 4.58555C73.1028 4.95594 73.3114 5.39415 73.4471 5.90018C73.5827 6.40099 73.6505 6.94875 73.6505 7.54347V8.19296H67.3278V7.01136H72.2029V6.9018C72.182 6.5262 72.1038 6.16102 71.9681 5.80628C71.8377 5.45154 71.629 5.1594 71.3421 4.92986C71.0552 4.70032 70.6639 4.58555 70.1683 4.58555C69.8397 4.58555 69.5371 4.65598 69.2606 4.79683C68.9841 4.93247 68.7468 5.13592 68.5485 5.4072C68.3503 5.67847 68.1964 6.00973 68.0868 6.40099C67.9773 6.79225 67.9225 7.2435 67.9225 7.75475V8.0834C67.9225 8.4851 67.9773 8.86331 68.0868 9.21806C68.2016 9.56758 68.3659 9.87537 68.5798 10.1414C68.7989 10.4075 69.0624 10.6162 69.3702 10.7674C69.6832 10.9187 70.0379 10.9944 70.4344 10.9944C70.9456 10.9944 71.3786 10.89 71.7334 10.6814C72.0881 10.4727 72.3985 10.1936 72.6646 9.84407L73.541 10.5405C73.3584 10.817 73.1263 11.0804 72.8445 11.3309C72.5628 11.5813 72.2159 11.7847 71.8038 11.9412C71.3969 12.0977 70.9143 12.176 70.3561 12.176ZM76.7884 5.36024V12.0195H75.3408V3.55263H76.7102L76.7884 5.36024ZM76.4441 7.46522L75.8416 7.44174C75.8468 6.86268 75.9329 6.32796 76.0998 5.83758C76.2668 5.34199 76.5015 4.9116 76.8041 4.54643C77.1067 4.18125 77.4666 3.89955 77.884 3.70131C78.3065 3.49785 78.7734 3.39613 79.2847 3.39613C79.702 3.39613 80.0776 3.45351 80.4115 3.56828C80.7454 3.67783 81.0297 3.8552 81.2644 4.10039C81.5044 4.34558 81.687 4.6638 81.8122 5.05506C81.9374 5.4411 82 5.91322 82 6.47142V12.0195H80.5445V6.45577C80.5445 6.01234 80.4793 5.6576 80.3489 5.39154C80.2185 5.12027 80.0281 4.92464 79.7777 4.80466C79.5272 4.67945 79.2195 4.61685 78.8543 4.61685C78.4943 4.61685 78.1657 4.6925 77.8683 4.84378C77.5762 4.99507 77.3232 5.20374 77.1093 5.4698C76.9006 5.73585 76.7363 6.04103 76.6163 6.38534C76.5015 6.72443 76.4441 7.08439 76.4441 7.46522Z" fill="#035191"/>
</svg>
