<svg width="870" height="584" viewBox="0 0 870 584" fill="none" xmlns="http://www.w3.org/2000/svg">
<path d="M0 0H870V584H0V0Z"/>
<path d="M19.376 38L14.704 12.08H19.6L22.384 29.68L24.976 12.08H30.16L25.424 38H19.376Z" fill="white"/>
<path d="M32.5078 38V19.504H37.7238V38H32.5078ZM32.4757 16.368V12.752H37.7238V16.368H32.4757Z" fill="white"/>
<path d="M41.1685 38V12.08H46.3525V38H41.1685Z" fill="white"/>
<path d="M49.9497 38V12.08H55.1338V38H49.9497Z" fill="white"/>
<path d="M58.539 38V19.504H63.755V38H58.539ZM58.507 16.368V12.752H63.755V16.368H58.507Z" fill="white"/>
<path d="M66.9758 38V19.504H72.1917V21.36C72.8744 20.6773 73.5784 20.144 74.3037 19.76C75.0504 19.376 75.8291 19.184 76.6397 19.184C77.4077 19.184 78.0371 19.376 78.5277 19.76C79.0397 20.1227 79.4238 20.6347 79.6797 21.296C79.9357 21.936 80.0638 22.672 80.0638 23.504V38H74.8798V24.24C74.8798 23.792 74.8051 23.4507 74.6557 23.216C74.5064 22.9813 74.2291 22.864 73.8238 22.864C73.6104 22.864 73.3544 22.928 73.0557 23.056C72.7784 23.1627 72.4904 23.3227 72.1917 23.536V38H66.9758Z" fill="white"/>
<path d="M89.2105 44.4C87.8238 44.4 86.6185 44.2613 85.5945 43.984C84.5705 43.7067 83.7705 43.2907 83.1945 42.736C82.6398 42.1813 82.3625 41.4773 82.3625 40.624C82.3625 40.048 82.4798 39.5253 82.7145 39.056C82.9705 38.608 83.3118 38.2133 83.7385 37.872C84.1865 37.5093 84.6878 37.2 85.2425 36.944C84.4318 36.7093 83.8025 36.3573 83.3545 35.888C82.9065 35.4187 82.6825 34.7893 82.6825 34C82.6825 33.2533 82.8638 32.6133 83.2265 32.08C83.5892 31.5253 84.0905 30.9707 84.7305 30.416C84.1332 29.8827 83.6745 29.232 83.3545 28.464C83.0558 27.6747 82.9065 26.7253 82.9065 25.616C82.9065 24.2293 83.1625 23.056 83.6745 22.096C84.1865 21.136 84.9332 20.4107 85.9145 19.92C86.9172 19.4293 88.1225 19.184 89.5305 19.184C90.4905 19.184 91.3332 19.3013 92.0585 19.536C92.7838 19.7707 93.4025 20.1333 93.9145 20.624C94.1492 20.2613 94.4585 19.9093 94.8425 19.568C95.2265 19.2267 95.6638 18.9387 96.1545 18.704L96.8265 18.384L98.0425 20.88C97.8505 20.944 97.5838 21.0507 97.2425 21.2C96.9012 21.3493 96.5385 21.5093 96.1545 21.68C95.7918 21.8507 95.4612 22.0213 95.1625 22.192C95.3972 22.6613 95.5785 23.1947 95.7065 23.792C95.8345 24.3893 95.8985 25.008 95.8985 25.648C95.8985 26.9707 95.6532 28.112 95.1625 29.072C94.6932 30.032 93.9892 30.768 93.0505 31.28C92.1118 31.7707 90.9385 32.016 89.5305 32.016C88.9332 32.016 88.3678 31.9733 87.8345 31.888C87.3012 31.7813 86.8105 31.6533 86.3625 31.504C86.2345 31.6747 86.1172 31.856 86.0105 32.048C85.9252 32.2187 85.8825 32.4107 85.8825 32.624C85.8825 32.88 86.0105 33.0827 86.2665 33.232C86.5225 33.3813 86.9812 33.4987 87.6425 33.584L92.5065 34.128C94.0852 34.2987 95.2478 34.8107 95.9945 35.664C96.7412 36.496 97.1145 37.5947 97.1145 38.96C97.1145 40.1333 96.8478 41.1253 96.3145 41.936C95.8025 42.7467 94.9598 43.3547 93.7865 43.76C92.6345 44.1867 91.1092 44.4 89.2105 44.4ZM89.8825 40.624C91.0558 40.624 91.9518 40.528 92.5705 40.336C93.2105 40.144 93.5305 39.7493 93.5305 39.152C93.5305 38.8533 93.4452 38.608 93.2745 38.416C93.1038 38.2453 92.8158 38.1067 92.4105 38C92.0265 37.872 91.4718 37.776 90.7465 37.712L87.3225 37.36C87.1092 37.5093 86.9172 37.68 86.7465 37.872C86.5972 38.0427 86.4692 38.224 86.3625 38.416C86.2772 38.6293 86.2345 38.8533 86.2345 39.088C86.2345 39.6 86.5118 39.984 87.0665 40.24C87.6212 40.496 88.5598 40.624 89.8825 40.624ZM89.5305 28.912C89.8292 28.912 90.0745 28.8587 90.2665 28.752C90.4585 28.624 90.5972 28.432 90.6825 28.176C90.7892 27.92 90.8638 27.5787 90.9065 27.152C90.9492 26.7253 90.9705 26.2133 90.9705 25.616C90.9705 24.9973 90.9492 24.4853 90.9065 24.08C90.8638 23.6533 90.7892 23.312 90.6825 23.056C90.5972 22.7787 90.4585 22.5867 90.2665 22.48C90.0745 22.352 89.8292 22.288 89.5305 22.288C89.2318 22.288 88.9865 22.352 88.7945 22.48C88.6025 22.5867 88.4532 22.768 88.3465 23.024C88.2612 23.28 88.1972 23.6213 88.1545 24.048C88.1118 24.4747 88.0905 24.9973 88.0905 25.616C88.0905 26.2133 88.1118 26.7253 88.1545 27.152C88.1972 27.5573 88.2612 27.8987 88.3465 28.176C88.4532 28.432 88.6025 28.624 88.7945 28.752C88.9865 28.8587 89.2318 28.912 89.5305 28.912Z" fill="white"/>
<path d="M105.243 38.32C103.898 38.32 102.746 38.0853 101.786 37.616C100.826 37.1253 100.09 36.4213 99.5785 35.504C99.0665 34.5653 98.8105 33.4453 98.8105 32.144V25.36C98.8105 24.0373 99.0665 22.9173 99.5785 22C100.09 21.0827 100.826 20.3893 101.786 19.92C102.768 19.4293 103.92 19.184 105.243 19.184C106.608 19.184 107.738 19.4187 108.634 19.888C109.552 20.3573 110.235 21.0507 110.683 21.968C111.152 22.8853 111.386 24.016 111.386 25.36V29.072H103.963V32.624C103.963 33.0933 104.016 33.4773 104.122 33.776C104.229 34.0747 104.379 34.288 104.571 34.416C104.763 34.544 104.987 34.608 105.243 34.608C105.498 34.608 105.722 34.5547 105.914 34.448C106.128 34.32 106.288 34.128 106.395 33.872C106.522 33.616 106.587 33.264 106.587 32.816V30.864H111.386V32.656C111.386 34.5333 110.842 35.952 109.755 36.912C108.667 37.8507 107.162 38.32 105.243 38.32ZM103.963 26.64H106.587V24.784C106.587 24.2933 106.522 23.9093 106.395 23.632C106.288 23.3547 106.128 23.1627 105.914 23.056C105.722 22.9493 105.488 22.896 105.211 22.896C104.955 22.896 104.73 22.96 104.538 23.088C104.368 23.216 104.229 23.44 104.122 23.76C104.016 24.0587 103.963 24.496 103.963 25.072V26.64Z" fill="white"/>
<path d="M114.226 38V19.504H119.442V21.36C120.124 20.6773 120.828 20.144 121.554 19.76C122.3 19.376 123.079 19.184 123.89 19.184C124.658 19.184 125.287 19.376 125.778 19.76C126.29 20.1227 126.674 20.6347 126.93 21.296C127.186 21.936 127.314 22.672 127.314 23.504V38H122.13V24.24C122.13 23.792 122.055 23.4507 121.906 23.216C121.756 22.9813 121.479 22.864 121.074 22.864C120.86 22.864 120.604 22.928 120.306 23.056C120.028 23.1627 119.74 23.3227 119.442 23.536V38H114.226Z" fill="white"/>
<path d="M138.664 38V19.504H143.88V38H138.664ZM138.632 16.368V12.752H143.88V16.368H138.632Z" fill="white"/>
<path d="M152.797 38.32C151.175 38.32 149.821 37.9573 148.733 37.232C147.666 36.5067 146.791 35.3227 146.109 33.68L149.661 32.112C150.002 32.944 150.397 33.6053 150.845 34.096C151.314 34.5653 151.826 34.8 152.381 34.8C152.786 34.8 153.085 34.7147 153.277 34.544C153.49 34.3733 153.597 34.1387 153.597 33.84C153.597 33.3493 153.405 32.9013 153.021 32.496C152.658 32.0907 151.997 31.4933 151.037 30.704L149.693 29.584C148.711 28.752 147.933 27.952 147.357 27.184C146.802 26.3947 146.525 25.424 146.525 24.272C146.525 23.2693 146.781 22.384 147.293 21.616C147.826 20.848 148.53 20.2507 149.405 19.824C150.279 19.3973 151.218 19.184 152.221 19.184C153.735 19.184 155.005 19.6 156.029 20.432C157.053 21.264 157.767 22.4373 158.173 23.952L154.813 25.488C154.685 25.0827 154.503 24.6773 154.269 24.272C154.034 23.8667 153.746 23.5253 153.405 23.248C153.085 22.9707 152.733 22.832 152.349 22.832C152.007 22.832 151.73 22.928 151.517 23.12C151.325 23.312 151.229 23.568 151.229 23.888C151.229 24.2933 151.453 24.7307 151.901 25.2C152.37 25.6693 153.01 26.2347 153.821 26.896L155.133 28.048C155.666 28.496 156.189 28.976 156.701 29.488C157.213 30 157.629 30.5653 157.949 31.184C158.29 31.8027 158.461 32.5067 158.461 33.296C158.461 34.3627 158.194 35.28 157.661 36.048C157.127 36.7947 156.423 37.36 155.549 37.744C154.695 38.128 153.778 38.32 152.797 38.32Z" fill="white"/>
<path d="M166.391 38.192C165.005 38.192 163.927 37.9893 163.159 37.584C162.413 37.1787 161.901 36.592 161.623 35.824C161.346 35.0347 161.207 34.0853 161.207 32.976V22.928H159.415V19.504H161.207V13.872H166.487V19.504H169.111V22.928H166.487V32.464C166.487 32.9973 166.637 33.3813 166.935 33.616C167.255 33.8507 167.65 33.968 168.119 33.968C168.397 33.968 168.653 33.9573 168.887 33.936C169.122 33.8933 169.335 33.8613 169.527 33.84V37.936C169.25 37.9787 168.813 38.032 168.215 38.096C167.618 38.16 167.01 38.192 166.391 38.192Z" fill="white"/>
<path d="M183.427 38.32C182.681 38.32 182.041 38.1387 181.507 37.776C180.995 37.392 180.611 36.8693 180.355 36.208C180.099 35.5467 179.971 34.8107 179.971 34V19.504H185.187V33.392C185.187 33.84 185.262 34.192 185.411 34.448C185.582 34.6827 185.87 34.8 186.275 34.8C186.51 34.8 186.755 34.7467 187.011 34.64C187.267 34.512 187.534 34.3733 187.811 34.224V19.504H192.995V38H187.811V36.304C187.15 36.9227 186.446 37.4133 185.699 37.776C184.974 38.1387 184.217 38.32 183.427 38.32Z" fill="white"/>
<path d="M196.288 38V19.504H201.504V21.36C202.187 20.6773 202.891 20.144 203.616 19.76C204.363 19.376 205.142 19.184 205.952 19.184C206.72 19.184 207.35 19.376 207.84 19.76C208.352 20.1227 208.736 20.6347 208.992 21.296C209.248 21.936 209.376 22.672 209.376 23.504V38H204.192V24.24C204.192 23.792 204.118 23.4507 203.968 23.216C203.819 22.9813 203.542 22.864 203.136 22.864C202.923 22.864 202.667 22.928 202.368 23.056C202.091 23.1627 201.803 23.3227 201.504 23.536V38H196.288Z" fill="white"/>
<path d="M218.203 38.32C216.582 38.32 215.227 37.9573 214.139 37.232C213.072 36.5067 212.198 35.3227 211.515 33.68L215.067 32.112C215.408 32.944 215.803 33.6053 216.251 34.096C216.72 34.5653 217.232 34.8 217.787 34.8C218.192 34.8 218.491 34.7147 218.683 34.544C218.896 34.3733 219.003 34.1387 219.003 33.84C219.003 33.3493 218.811 32.9013 218.427 32.496C218.064 32.0907 217.403 31.4933 216.443 30.704L215.099 29.584C214.118 28.752 213.339 27.952 212.763 27.184C212.208 26.3947 211.931 25.424 211.931 24.272C211.931 23.2693 212.187 22.384 212.699 21.616C213.232 20.848 213.936 20.2507 214.811 19.824C215.686 19.3973 216.624 19.184 217.627 19.184C219.142 19.184 220.411 19.6 221.435 20.432C222.459 21.264 223.174 22.4373 223.579 23.952L220.219 25.488C220.091 25.0827 219.91 24.6773 219.675 24.272C219.44 23.8667 219.152 23.5253 218.811 23.248C218.491 22.9707 218.139 22.832 217.755 22.832C217.414 22.832 217.136 22.928 216.923 23.12C216.731 23.312 216.635 23.568 216.635 23.888C216.635 24.2933 216.859 24.7307 217.307 25.2C217.776 25.6693 218.416 26.2347 219.227 26.896L220.539 28.048C221.072 28.496 221.595 28.976 222.107 29.488C222.619 30 223.035 30.5653 223.355 31.184C223.696 31.8027 223.867 32.5067 223.867 33.296C223.867 34.3627 223.6 35.28 223.067 36.048C222.534 36.7947 221.83 37.36 220.955 37.744C220.102 38.128 219.184 38.32 218.203 38.32Z" fill="white"/>
<path d="M232.117 38.32C230.773 38.32 229.622 38.0853 228.661 37.616C227.701 37.1253 226.965 36.4213 226.454 35.504C225.942 34.5653 225.686 33.4453 225.686 32.144V25.36C225.686 24.0373 225.942 22.9173 226.454 22C226.965 21.0827 227.701 20.3893 228.661 19.92C229.643 19.4293 230.795 19.184 232.117 19.184C233.483 19.184 234.614 19.4187 235.51 19.888C236.427 20.3573 237.109 21.0507 237.557 21.968C238.027 22.8853 238.262 24.016 238.262 25.36V29.072H230.837V32.624C230.837 33.0933 230.891 33.4773 230.997 33.776C231.104 34.0747 231.253 34.288 231.445 34.416C231.637 34.544 231.861 34.608 232.117 34.608C232.373 34.608 232.598 34.5547 232.79 34.448C233.003 34.32 233.163 34.128 233.27 33.872C233.398 33.616 233.462 33.264 233.462 32.816V30.864H238.262V32.656C238.262 34.5333 237.717 35.952 236.63 36.912C235.542 37.8507 234.037 38.32 232.117 38.32ZM230.837 26.64H233.462V24.784C233.462 24.2933 233.398 23.9093 233.27 23.632C233.163 23.3547 233.003 23.1627 232.79 23.056C232.598 22.9493 232.363 22.896 232.085 22.896C231.829 22.896 231.605 22.96 231.413 23.088C231.243 23.216 231.104 23.44 230.997 23.76C230.891 24.0587 230.837 24.496 230.837 25.072V26.64Z" fill="white"/>
<path d="M241.165 38V19.504H246.381V22.576C246.978 21.5093 247.575 20.6987 248.173 20.144C248.77 19.568 249.495 19.28 250.349 19.28C250.519 19.28 250.669 19.2907 250.797 19.312C250.925 19.312 251.042 19.3333 251.149 19.376V24.56C250.914 24.4533 250.647 24.368 250.349 24.304C250.071 24.2187 249.773 24.176 249.453 24.176C248.855 24.176 248.301 24.336 247.789 24.656C247.277 24.976 246.807 25.4133 246.381 25.968V38H241.165Z" fill="white"/>
<path d="M259.399 38.32C258.055 38.32 256.903 38.0853 255.943 37.616C254.983 37.1253 254.247 36.4213 253.735 35.504C253.223 34.5653 252.967 33.4453 252.967 32.144V25.36C252.967 24.0373 253.223 22.9173 253.735 22C254.247 21.0827 254.983 20.3893 255.943 19.92C256.924 19.4293 258.076 19.184 259.399 19.184C260.764 19.184 261.895 19.4187 262.791 19.888C263.708 20.3573 264.391 21.0507 264.839 21.968C265.308 22.8853 265.543 24.016 265.543 25.36V29.072H258.119V32.624C258.119 33.0933 258.172 33.4773 258.279 33.776C258.385 34.0747 258.535 34.288 258.727 34.416C258.919 34.544 259.143 34.608 259.399 34.608C259.655 34.608 259.879 34.5547 260.071 34.448C260.284 34.32 260.444 34.128 260.551 33.872C260.679 33.616 260.743 33.264 260.743 32.816V30.864H265.543V32.656C265.543 34.5333 264.999 35.952 263.911 36.912C262.823 37.8507 261.319 38.32 259.399 38.32ZM258.119 26.64H260.743V24.784C260.743 24.2933 260.679 23.9093 260.551 23.632C260.444 23.3547 260.284 23.1627 260.071 23.056C259.879 22.9493 259.644 22.896 259.367 22.896C259.111 22.896 258.887 22.96 258.695 23.088C258.524 23.216 258.385 23.44 258.279 23.76C258.172 24.0587 258.119 24.496 258.119 25.072V26.64Z" fill="white"/>
<path d="M276.953 38V12.08H282.681V22.576H286.681V12.08H292.441V38H286.681V26.672H282.681V38H276.953Z" fill="white"/>
<path d="M302.149 38.32C300.805 38.32 299.653 38.0853 298.693 37.616C297.733 37.1253 296.997 36.4213 296.485 35.504C295.973 34.5653 295.717 33.4453 295.717 32.144V25.36C295.717 24.0373 295.973 22.9173 296.485 22C296.997 21.0827 297.733 20.3893 298.693 19.92C299.674 19.4293 300.826 19.184 302.149 19.184C303.514 19.184 304.645 19.4187 305.541 19.888C306.458 20.3573 307.141 21.0507 307.589 21.968C308.058 22.8853 308.293 24.016 308.293 25.36V29.072H300.869V32.624C300.869 33.0933 300.922 33.4773 301.029 33.776C301.135 34.0747 301.285 34.288 301.477 34.416C301.669 34.544 301.893 34.608 302.149 34.608C302.405 34.608 302.629 34.5547 302.821 34.448C303.034 34.32 303.194 34.128 303.301 33.872C303.429 33.616 303.493 33.264 303.493 32.816V30.864H308.293V32.656C308.293 34.5333 307.749 35.952 306.661 36.912C305.573 37.8507 304.069 38.32 302.149 38.32ZM300.869 26.64H303.493V24.784C303.493 24.2933 303.429 23.9093 303.301 23.632C303.194 23.3547 303.034 23.1627 302.821 23.056C302.629 22.9493 302.394 22.896 302.117 22.896C301.861 22.896 301.637 22.96 301.445 23.088C301.274 23.216 301.135 23.44 301.029 23.76C300.922 24.0587 300.869 24.496 300.869 25.072V26.64Z" fill="white"/>
<path d="M311.164 38V19.504H316.38V38H311.164ZM311.132 16.368V12.752H316.38V16.368H311.132Z" fill="white"/>
<path d="M319.601 38V19.504H324.721V20.976C325.403 20.3147 326.107 19.8453 326.833 19.568C327.579 19.2907 328.337 19.152 329.105 19.152C329.851 19.152 330.491 19.344 331.025 19.728C331.579 20.0907 331.995 20.6347 332.273 21.36C332.998 20.5493 333.755 19.984 334.545 19.664C335.355 19.3227 336.166 19.152 336.977 19.152C337.702 19.152 338.331 19.3333 338.865 19.696C339.398 20.0373 339.814 20.5493 340.113 21.232C340.411 21.8933 340.561 22.6933 340.561 23.632V38H335.441V24.176C335.441 23.664 335.345 23.3013 335.153 23.088C334.982 22.8533 334.715 22.736 334.353 22.736C334.139 22.736 333.873 22.8 333.553 22.928C333.233 23.0347 332.923 23.1947 332.625 23.408C332.625 23.4507 332.625 23.4933 332.625 23.536C332.625 23.5573 332.625 23.5893 332.625 23.632V38H327.569V24.176C327.569 23.664 327.473 23.3013 327.281 23.088C327.089 22.8533 326.811 22.736 326.449 22.736C326.214 22.736 325.937 22.8 325.617 22.928C325.318 23.0347 325.019 23.1947 324.721 23.408V38H319.601Z" fill="white"/>
<path d="M347.503 38.32C346.564 38.32 345.775 38.096 345.134 37.648C344.494 37.2 344.014 36.6347 343.694 35.952C343.374 35.248 343.215 34.5333 343.215 33.808C343.215 32.656 343.439 31.6853 343.887 30.896C344.356 30.1067 344.964 29.4453 345.711 28.912C346.457 28.3787 347.279 27.9307 348.174 27.568C349.07 27.184 349.956 26.8427 350.831 26.544V24.688C350.831 24.368 350.798 24.0907 350.734 23.856C350.671 23.6 350.564 23.408 350.414 23.28C350.265 23.1307 350.041 23.056 349.742 23.056C349.444 23.056 349.209 23.12 349.039 23.248C348.889 23.376 348.783 23.5573 348.719 23.792C348.655 24.0053 348.612 24.2507 348.591 24.528L348.462 25.872L343.599 25.68C343.705 23.4613 344.292 21.8293 345.358 20.784C346.447 19.7173 348.068 19.184 350.223 19.184C352.1 19.184 353.497 19.7067 354.414 20.752C355.353 21.776 355.823 23.1093 355.823 24.752V33.392C355.823 34.16 355.833 34.832 355.854 35.408C355.897 35.984 355.94 36.4853 355.983 36.912C356.047 37.3387 356.1 37.7013 356.142 38H351.47C351.406 37.5093 351.332 36.976 351.246 36.4C351.161 35.824 351.097 35.4827 351.055 35.376C350.841 36.144 350.436 36.8267 349.839 37.424C349.263 38.0213 348.484 38.32 347.503 38.32ZM349.358 34.8C349.572 34.8 349.764 34.7573 349.935 34.672C350.126 34.5867 350.297 34.4693 350.447 34.32C350.596 34.1707 350.724 34.0213 350.831 33.872V28.816C350.404 29.072 350.009 29.3387 349.647 29.616C349.284 29.872 348.975 30.16 348.719 30.48C348.462 30.8 348.26 31.152 348.111 31.536C347.983 31.8987 347.918 32.3147 347.918 32.784C347.918 33.4027 348.046 33.8933 348.302 34.256C348.559 34.6187 348.91 34.8 349.358 34.8Z" fill="white"/>
<path d="M364.579 38.192C363.192 38.192 362.115 37.9893 361.347 37.584C360.6 37.1787 360.088 36.592 359.811 35.824C359.533 35.0347 359.395 34.0853 359.395 32.976V22.928H357.603V19.504H359.395V13.872H364.675V19.504H367.299V22.928H364.675V32.464C364.675 32.9973 364.824 33.3813 365.123 33.616C365.443 33.8507 365.837 33.968 366.307 33.968C366.584 33.968 366.84 33.9573 367.075 33.936C367.309 33.8933 367.523 33.8613 367.715 33.84V37.936C367.437 37.9787 367 38.032 366.403 38.096C365.805 38.16 365.197 38.192 364.579 38.192Z" fill="white"/>
<path d="M378.191 38V33.072H383.119V38H378.191Z" fill="white"/>
<path d="M386.003 38V33.072H390.931V38H386.003Z" fill="white"/>
<path d="M393.816 38V33.072H398.744V38H393.816Z" fill="white"/>
<path d="M19.632 85.32C18.2667 85.32 17.2107 84.84 16.464 83.88C15.7173 82.92 15.344 81.5013 15.344 79.624V71.976C15.344 70.824 15.504 69.8213 15.824 68.968C16.144 68.0933 16.624 67.4107 17.264 66.92C17.904 66.4293 18.6933 66.184 19.632 66.184C20.3147 66.184 20.9653 66.3227 21.584 66.6C22.2027 66.856 22.768 67.208 23.28 67.656V59.08H28.496V85H23.28V83.56C22.704 84.1147 22.1067 84.552 21.488 84.872C20.8693 85.1707 20.2507 85.32 19.632 85.32ZM21.904 81.992C22.0747 81.992 22.2773 81.9493 22.512 81.864C22.768 81.7787 23.024 81.6613 23.28 81.512V69.832C23.0667 69.7253 22.8427 69.6293 22.608 69.544C22.3733 69.4587 22.1493 69.416 21.936 69.416C21.4667 69.416 21.1253 69.6187 20.912 70.024C20.6987 70.408 20.592 70.8773 20.592 71.432V79.944C20.592 80.328 20.6347 80.68 20.72 81C20.8053 81.2987 20.944 81.544 21.136 81.736C21.328 81.9067 21.584 81.992 21.904 81.992Z" fill="white"/>
<path d="M31.7577 85V66.504H36.9738V85H31.7577ZM31.7257 63.368V59.752H36.9738V63.368H31.7257Z" fill="white"/>
<path d="M46.2425 85.32C44.8985 85.32 43.7465 85.0853 42.7865 84.616C41.8265 84.1253 41.0905 83.4213 40.5785 82.504C40.0665 81.5653 39.8105 80.4453 39.8105 79.144V72.36C39.8105 71.0373 40.0665 69.9173 40.5785 69C41.0905 68.0827 41.8265 67.3893 42.7865 66.92C43.7678 66.4293 44.9198 66.184 46.2425 66.184C47.6078 66.184 48.7385 66.4187 49.6345 66.888C50.5518 67.3573 51.2345 68.0507 51.6825 68.968C52.1518 69.8853 52.3865 71.016 52.3865 72.36V76.072H44.9625V79.624C44.9625 80.0933 45.0158 80.4773 45.1225 80.776C45.2292 81.0747 45.3785 81.288 45.5705 81.416C45.7625 81.544 45.9865 81.608 46.2425 81.608C46.4985 81.608 46.7225 81.5547 46.9145 81.448C47.1278 81.32 47.2878 81.128 47.3945 80.872C47.5225 80.616 47.5865 80.264 47.5865 79.816V77.864H52.3865V79.656C52.3865 81.5333 51.8425 82.952 50.7545 83.912C49.6665 84.8507 48.1625 85.32 46.2425 85.32ZM44.9625 73.64H47.5865V71.784C47.5865 71.2933 47.5225 70.9093 47.3945 70.632C47.2878 70.3547 47.1278 70.1627 46.9145 70.056C46.7225 69.9493 46.4878 69.896 46.2105 69.896C45.9545 69.896 45.7305 69.96 45.5385 70.088C45.3678 70.216 45.2292 70.44 45.1225 70.76C45.0158 71.0587 44.9625 71.496 44.9625 72.072V73.64Z" fill="white"/>
<path d="M63.7012 85V59.08H70.4532C71.5626 59.08 72.6079 59.1653 73.5892 59.336C74.5919 59.5067 75.4773 59.8373 76.2453 60.328C77.0133 60.7973 77.6106 61.48 78.0372 62.376C78.4852 63.2507 78.7093 64.4133 78.7093 65.864C78.7093 66.9093 78.5492 67.7947 78.2292 68.52C77.9306 69.224 77.4932 69.7893 76.9173 70.216C76.3626 70.6427 75.6906 70.9307 74.9013 71.08C75.9039 71.208 76.7466 71.5387 77.4293 72.072C78.1119 72.584 78.6239 73.2773 78.9652 74.152C79.3279 75.0267 79.5092 76.0827 79.5092 77.32C79.5092 78.664 79.3279 79.8267 78.9652 80.808C78.6239 81.768 78.1226 82.5573 77.4613 83.176C76.7999 83.7947 75.9786 84.2533 74.9973 84.552C74.0373 84.8507 72.9279 85 71.6693 85H63.7012ZM69.4293 81H70.6452C71.9039 81 72.7679 80.68 73.2373 80.04C73.7279 79.4 73.9733 78.4613 73.9733 77.224C73.9733 76.2427 73.8666 75.464 73.6533 74.888C73.4399 74.312 73.0879 73.896 72.5973 73.64C72.1066 73.3627 71.4453 73.224 70.6133 73.224H69.4293V81ZM69.4293 69.448H70.5492C71.4239 69.448 72.0853 69.32 72.5332 69.064C72.9812 68.7867 73.2799 68.392 73.4293 67.88C73.5999 67.368 73.6852 66.7493 73.6852 66.024C73.6852 65.3413 73.5573 64.776 73.3013 64.328C73.0666 63.8587 72.7039 63.5067 72.2132 63.272C71.7439 63.0373 71.1466 62.92 70.4212 62.92H69.4293V69.448Z" fill="white"/>
<path d="M86.0338 85.32C85.0951 85.32 84.3057 85.096 83.6657 84.648C83.0257 84.2 82.5458 83.6347 82.2258 82.952C81.9058 82.248 81.7458 81.5333 81.7458 80.808C81.7458 79.656 81.9697 78.6853 82.4177 77.896C82.8871 77.1067 83.4951 76.4453 84.2418 75.912C84.9884 75.3787 85.8097 74.9307 86.7057 74.568C87.6017 74.184 88.4871 73.8427 89.3617 73.544V71.688C89.3617 71.368 89.3298 71.0907 89.2657 70.856C89.2017 70.6 89.0951 70.408 88.9457 70.28C88.7964 70.1307 88.5724 70.056 88.2738 70.056C87.9751 70.056 87.7404 70.12 87.5697 70.248C87.4204 70.376 87.3138 70.5573 87.2497 70.792C87.1857 71.0053 87.1431 71.2507 87.1217 71.528L86.9938 72.872L82.1298 72.68C82.2364 70.4613 82.8231 68.8293 83.8897 67.784C84.9777 66.7173 86.5991 66.184 88.7538 66.184C90.6311 66.184 92.0284 66.7067 92.9457 67.752C93.8844 68.776 94.3538 70.1093 94.3538 71.752V80.392C94.3538 81.16 94.3644 81.832 94.3857 82.408C94.4284 82.984 94.4711 83.4853 94.5137 83.912C94.5778 84.3387 94.6311 84.7013 94.6738 85H90.0017C89.9377 84.5093 89.8631 83.976 89.7777 83.4C89.6924 82.824 89.6284 82.4827 89.5858 82.376C89.3724 83.144 88.9671 83.8267 88.3698 84.424C87.7937 85.0213 87.0151 85.32 86.0338 85.32ZM87.8897 81.8C88.1031 81.8 88.2951 81.7573 88.4658 81.672C88.6578 81.5867 88.8284 81.4693 88.9778 81.32C89.1271 81.1707 89.2551 81.0213 89.3617 80.872V75.816C88.9351 76.072 88.5404 76.3387 88.1777 76.616C87.8151 76.872 87.5057 77.16 87.2497 77.48C86.9938 77.8 86.7911 78.152 86.6418 78.536C86.5138 78.8987 86.4498 79.3147 86.4498 79.784C86.4498 80.4027 86.5778 80.8933 86.8337 81.256C87.0897 81.6187 87.4417 81.8 87.8897 81.8Z" fill="white"/>
<path d="M100.709 85.32C99.9618 85.32 99.3218 85.1387 98.7885 84.776C98.2765 84.392 97.8925 83.8693 97.6365 83.208C97.3805 82.5467 97.2525 81.8107 97.2525 81V66.504H102.468V80.392C102.468 80.84 102.543 81.192 102.692 81.448C102.863 81.6827 103.151 81.8 103.557 81.8C103.791 81.8 104.037 81.7467 104.293 81.64C104.549 81.512 104.815 81.3733 105.092 81.224V66.504H110.277V85H105.092V83.304C104.431 83.9227 103.727 84.4133 102.98 84.776C102.255 85.1387 101.498 85.32 100.709 85.32Z" fill="white"/>
<path d="M119.586 91.4C118.199 91.4 116.993 91.2613 115.969 90.984C114.945 90.7067 114.146 90.2907 113.57 89.736C113.015 89.1813 112.738 88.4773 112.738 87.624C112.738 87.048 112.855 86.5253 113.09 86.056C113.345 85.608 113.687 85.2133 114.114 84.872C114.562 84.5093 115.063 84.2 115.618 83.944C114.807 83.7093 114.177 83.3573 113.729 82.888C113.282 82.4187 113.058 81.7893 113.058 81C113.058 80.2533 113.239 79.6133 113.602 79.08C113.964 78.5253 114.465 77.9707 115.105 77.416C114.508 76.8827 114.049 76.232 113.729 75.464C113.431 74.6747 113.282 73.7253 113.282 72.616C113.282 71.2293 113.537 70.056 114.049 69.096C114.562 68.136 115.308 67.4107 116.289 66.92C117.292 66.4293 118.498 66.184 119.906 66.184C120.866 66.184 121.708 66.3013 122.434 66.536C123.159 66.7707 123.777 67.1333 124.289 67.624C124.524 67.2613 124.833 66.9093 125.217 66.568C125.602 66.2267 126.039 65.9387 126.53 65.704L127.201 65.384L128.417 67.88C128.225 67.944 127.959 68.0507 127.618 68.2C127.276 68.3493 126.914 68.5093 126.53 68.68C126.167 68.8507 125.836 69.0213 125.537 69.192C125.772 69.6613 125.953 70.1947 126.081 70.792C126.209 71.3893 126.273 72.008 126.273 72.648C126.273 73.9707 126.028 75.112 125.537 76.072C125.068 77.032 124.364 77.768 123.425 78.28C122.487 78.7707 121.313 79.016 119.906 79.016C119.308 79.016 118.743 78.9733 118.21 78.888C117.676 78.7813 117.186 78.6533 116.738 78.504C116.61 78.6747 116.492 78.856 116.385 79.048C116.3 79.2187 116.257 79.4107 116.257 79.624C116.257 79.88 116.386 80.0827 116.642 80.232C116.897 80.3813 117.356 80.4987 118.018 80.584L122.882 81.128C124.46 81.2987 125.623 81.8107 126.369 82.664C127.116 83.496 127.49 84.5947 127.49 85.96C127.49 87.1333 127.223 88.1253 126.689 88.936C126.177 89.7467 125.335 90.3547 124.161 90.76C123.009 91.1867 121.484 91.4 119.586 91.4ZM120.257 87.624C121.431 87.624 122.327 87.528 122.946 87.336C123.586 87.144 123.906 86.7493 123.906 86.152C123.906 85.8533 123.82 85.608 123.649 85.416C123.479 85.2453 123.191 85.1067 122.785 85C122.401 84.872 121.847 84.776 121.121 84.712L117.698 84.36C117.484 84.5093 117.292 84.68 117.121 84.872C116.972 85.0427 116.844 85.224 116.738 85.416C116.652 85.6293 116.609 85.8533 116.609 86.088C116.609 86.6 116.887 86.984 117.441 87.24C117.996 87.496 118.935 87.624 120.257 87.624ZM119.906 75.912C120.204 75.912 120.45 75.8587 120.642 75.752C120.834 75.624 120.972 75.432 121.058 75.176C121.164 74.92 121.239 74.5787 121.282 74.152C121.324 73.7253 121.345 73.2133 121.345 72.616C121.345 71.9973 121.324 71.4853 121.282 71.08C121.239 70.6533 121.164 70.312 121.058 70.056C120.972 69.7787 120.834 69.5867 120.642 69.48C120.45 69.352 120.204 69.288 119.906 69.288C119.607 69.288 119.362 69.352 119.17 69.48C118.978 69.5867 118.828 69.768 118.721 70.024C118.636 70.28 118.572 70.6213 118.53 71.048C118.487 71.4747 118.465 71.9973 118.465 72.616C118.465 73.2133 118.487 73.7253 118.53 74.152C118.572 74.5573 118.636 74.8987 118.721 75.176C118.828 75.432 118.978 75.624 119.17 75.752C119.362 75.8587 119.607 75.912 119.906 75.912Z" fill="white"/>
<path d="M135.617 85.32C134.273 85.32 133.122 85.0853 132.161 84.616C131.201 84.1253 130.465 83.4213 129.954 82.504C129.442 81.5653 129.186 80.4453 129.186 79.144V72.36C129.186 71.0373 129.442 69.9173 129.954 69C130.465 68.0827 131.201 67.3893 132.161 66.92C133.143 66.4293 134.295 66.184 135.617 66.184C136.983 66.184 138.114 66.4187 139.01 66.888C139.927 67.3573 140.609 68.0507 141.057 68.968C141.527 69.8853 141.762 71.016 141.762 72.36V76.072H134.337V79.624C134.337 80.0933 134.391 80.4773 134.497 80.776C134.604 81.0747 134.753 81.288 134.945 81.416C135.137 81.544 135.361 81.608 135.617 81.608C135.873 81.608 136.098 81.5547 136.29 81.448C136.503 81.32 136.663 81.128 136.77 80.872C136.898 80.616 136.962 80.264 136.962 79.816V77.864H141.762V79.656C141.762 81.5333 141.217 82.952 140.13 83.912C139.042 84.8507 137.537 85.32 135.617 85.32ZM134.337 73.64H136.962V71.784C136.962 71.2933 136.898 70.9093 136.77 70.632C136.663 70.3547 136.503 70.1627 136.29 70.056C136.098 69.9493 135.863 69.896 135.585 69.896C135.329 69.896 135.105 69.96 134.913 70.088C134.743 70.216 134.604 70.44 134.497 70.76C134.391 71.0587 134.337 71.496 134.337 72.072V73.64Z" fill="white"/>
<path d="M144.601 85V66.504H149.817V68.36C150.499 67.6773 151.203 67.144 151.929 66.76C152.675 66.376 153.454 66.184 154.265 66.184C155.033 66.184 155.662 66.376 156.153 66.76C156.665 67.1227 157.049 67.6347 157.305 68.296C157.561 68.936 157.689 69.672 157.689 70.504V85H152.505V71.24C152.505 70.792 152.43 70.4507 152.281 70.216C152.131 69.9813 151.854 69.864 151.449 69.864C151.235 69.864 150.979 69.928 150.681 70.056C150.403 70.1627 150.115 70.3227 149.817 70.536V85H144.601Z" fill="white"/>
<path d="M166.9 85.32C165.577 85.32 164.425 85.096 163.443 84.648C162.483 84.2 161.737 83.528 161.204 82.632C160.692 81.736 160.436 80.616 160.436 79.272V72.232C160.436 70.888 160.692 69.768 161.204 68.872C161.737 67.976 162.483 67.304 163.443 66.856C164.425 66.408 165.577 66.184 166.9 66.184C168.222 66.184 169.363 66.408 170.324 66.856C171.305 67.304 172.062 67.976 172.596 68.872C173.129 69.768 173.396 70.888 173.396 72.232V79.272C173.396 80.616 173.129 81.736 172.596 82.632C172.062 83.528 171.305 84.2 170.324 84.648C169.363 85.096 168.222 85.32 166.9 85.32ZM166.932 81.864C167.273 81.864 167.54 81.7787 167.732 81.608C167.924 81.416 168.051 81.16 168.115 80.84C168.201 80.4987 168.243 80.0933 168.243 79.624V71.88C168.243 71.4107 168.201 71.016 168.115 70.696C168.051 70.3547 167.924 70.0987 167.732 69.928C167.54 69.736 167.273 69.64 166.932 69.64C166.59 69.64 166.324 69.736 166.132 69.928C165.939 70.0987 165.801 70.3547 165.715 70.696C165.63 71.016 165.587 71.4107 165.587 71.88V79.624C165.587 80.0933 165.63 80.4987 165.715 80.84C165.801 81.16 165.939 81.416 166.132 81.608C166.324 81.7787 166.59 81.864 166.932 81.864Z" fill="white"/>
<path d="M181.984 85.32C180.363 85.32 179.008 84.9573 177.92 84.232C176.854 83.5067 175.979 82.3227 175.296 80.68L178.848 79.112C179.19 79.944 179.584 80.6053 180.032 81.096C180.502 81.5653 181.014 81.8 181.568 81.8C181.974 81.8 182.272 81.7147 182.464 81.544C182.678 81.3733 182.784 81.1387 182.784 80.84C182.784 80.3493 182.592 79.9013 182.208 79.496C181.846 79.0907 181.184 78.4933 180.224 77.704L178.88 76.584C177.899 75.752 177.12 74.952 176.544 74.184C175.99 73.3947 175.712 72.424 175.712 71.272C175.712 70.2693 175.968 69.384 176.48 68.616C177.014 67.848 177.718 67.2507 178.592 66.824C179.467 66.3973 180.406 66.184 181.408 66.184C182.923 66.184 184.192 66.6 185.216 67.432C186.24 68.264 186.955 69.4373 187.36 70.952L184 72.488C183.872 72.0827 183.691 71.6773 183.456 71.272C183.222 70.8667 182.934 70.5253 182.592 70.248C182.272 69.9707 181.92 69.832 181.536 69.832C181.195 69.832 180.918 69.928 180.704 70.12C180.512 70.312 180.416 70.568 180.416 70.888C180.416 71.2933 180.64 71.7307 181.088 72.2C181.558 72.6693 182.198 73.2347 183.008 73.896L184.32 75.048C184.854 75.496 185.376 75.976 185.888 76.488C186.4 77 186.816 77.5653 187.136 78.184C187.478 78.8027 187.648 79.5067 187.648 80.296C187.648 81.3627 187.382 82.28 186.848 83.048C186.315 83.7947 185.611 84.36 184.736 84.744C183.883 85.128 182.966 85.32 181.984 85.32Z" fill="white"/>
<path d="M195.547 85.32C193.925 85.32 192.571 84.9573 191.483 84.232C190.416 83.5067 189.541 82.3227 188.859 80.68L192.411 79.112C192.752 79.944 193.147 80.6053 193.595 81.096C194.064 81.5653 194.576 81.8 195.131 81.8C195.536 81.8 195.835 81.7147 196.027 81.544C196.24 81.3733 196.347 81.1387 196.347 80.84C196.347 80.3493 196.155 79.9013 195.771 79.496C195.408 79.0907 194.747 78.4933 193.787 77.704L192.443 76.584C191.461 75.752 190.683 74.952 190.107 74.184C189.552 73.3947 189.275 72.424 189.275 71.272C189.275 70.2693 189.531 69.384 190.043 68.616C190.576 67.848 191.28 67.2507 192.155 66.824C193.029 66.3973 193.968 66.184 194.971 66.184C196.485 66.184 197.755 66.6 198.779 67.432C199.803 68.264 200.517 69.4373 200.923 70.952L197.563 72.488C197.435 72.0827 197.253 71.6773 197.019 71.272C196.784 70.8667 196.496 70.5253 196.155 70.248C195.835 69.9707 195.483 69.832 195.099 69.832C194.757 69.832 194.48 69.928 194.267 70.12C194.075 70.312 193.979 70.568 193.979 70.888C193.979 71.2933 194.203 71.7307 194.651 72.2C195.12 72.6693 195.76 73.2347 196.571 73.896L197.883 75.048C198.416 75.496 198.939 75.976 199.451 76.488C199.963 77 200.379 77.5653 200.699 78.184C201.04 78.8027 201.211 79.5067 201.211 80.296C201.211 81.3627 200.944 82.28 200.411 83.048C199.877 83.7947 199.173 84.36 198.299 84.744C197.445 85.128 196.528 85.32 195.547 85.32Z" fill="white"/>
<path d="M209.461 85.32C208.117 85.32 206.965 85.0853 206.005 84.616C205.045 84.1253 204.309 83.4213 203.797 82.504C203.285 81.5653 203.029 80.4453 203.029 79.144V72.36C203.029 71.0373 203.285 69.9173 203.797 69C204.309 68.0827 205.045 67.3893 206.005 66.92C206.987 66.4293 208.139 66.184 209.461 66.184C210.827 66.184 211.957 66.4187 212.853 66.888C213.771 67.3573 214.453 68.0507 214.901 68.968C215.371 69.8853 215.605 71.016 215.605 72.36V76.072H208.181V79.624C208.181 80.0933 208.235 80.4773 208.341 80.776C208.448 81.0747 208.597 81.288 208.789 81.416C208.981 81.544 209.205 81.608 209.461 81.608C209.717 81.608 209.941 81.5547 210.133 81.448C210.347 81.32 210.507 81.128 210.613 80.872C210.741 80.616 210.805 80.264 210.805 79.816V77.864H215.605V79.656C215.605 81.5333 215.061 82.952 213.973 83.912C212.885 84.8507 211.381 85.32 209.461 85.32ZM208.181 73.64H210.805V71.784C210.805 71.2933 210.741 70.9093 210.613 70.632C210.507 70.3547 210.347 70.1627 210.133 70.056C209.941 69.9493 209.707 69.896 209.429 69.896C209.173 69.896 208.949 69.96 208.757 70.088C208.587 70.216 208.448 70.44 208.341 70.76C208.235 71.0587 208.181 71.496 208.181 72.072V73.64Z" fill="white"/>
<path d="M218.445 85V66.504H223.661V68.36C224.343 67.6773 225.047 67.144 225.773 66.76C226.519 66.376 227.298 66.184 228.109 66.184C228.877 66.184 229.506 66.376 229.997 66.76C230.508 67.1227 230.893 67.6347 231.148 68.296C231.404 68.936 231.533 69.672 231.533 70.504V85H226.348V71.24C226.348 70.792 226.274 70.4507 226.124 70.216C225.975 69.9813 225.698 69.864 225.292 69.864C225.079 69.864 224.823 69.928 224.525 70.056C224.247 70.1627 223.959 70.3227 223.661 70.536V85H218.445Z" fill="white"/>
<path d="M240.359 85.32C238.738 85.32 237.383 84.9573 236.295 84.232C235.229 83.5067 234.354 82.3227 233.671 80.68L237.223 79.112C237.565 79.944 237.959 80.6053 238.407 81.096C238.877 81.5653 239.389 81.8 239.943 81.8C240.349 81.8 240.647 81.7147 240.839 81.544C241.053 81.3733 241.159 81.1387 241.159 80.84C241.159 80.3493 240.967 79.9013 240.583 79.496C240.221 79.0907 239.559 78.4933 238.599 77.704L237.255 76.584C236.274 75.752 235.495 74.952 234.919 74.184C234.365 73.3947 234.087 72.424 234.087 71.272C234.087 70.2693 234.343 69.384 234.855 68.616C235.389 67.848 236.093 67.2507 236.967 66.824C237.842 66.3973 238.781 66.184 239.783 66.184C241.298 66.184 242.567 66.6 243.591 67.432C244.615 68.264 245.33 69.4373 245.735 70.952L242.375 72.488C242.247 72.0827 242.066 71.6773 241.831 71.272C241.597 70.8667 241.309 70.5253 240.967 70.248C240.647 69.9707 240.295 69.832 239.911 69.832C239.57 69.832 239.293 69.928 239.079 70.12C238.887 70.312 238.791 70.568 238.791 70.888C238.791 71.2933 239.015 71.7307 239.463 72.2C239.933 72.6693 240.573 73.2347 241.383 73.896L242.695 75.048C243.229 75.496 243.751 75.976 244.263 76.488C244.775 77 245.191 77.5653 245.511 78.184C245.853 78.8027 246.023 79.5067 246.023 80.296C246.023 81.3627 245.757 82.28 245.223 83.048C244.69 83.7947 243.986 84.36 243.111 84.744C242.258 85.128 241.341 85.32 240.359 85.32Z" fill="white"/>
<path d="M254.242 85.32C252.898 85.32 251.746 85.0747 250.786 84.584C249.847 84.0933 249.122 83.3893 248.61 82.472C248.098 81.5547 247.842 80.4453 247.842 79.144V72.36C247.842 71.0373 248.098 69.9173 248.61 69C249.122 68.0827 249.847 67.3893 250.786 66.92C251.746 66.4293 252.898 66.184 254.242 66.184C255.564 66.184 256.684 66.3867 257.602 66.792C258.54 67.1973 259.255 67.816 259.746 68.648C260.236 69.4587 260.482 70.4933 260.482 71.752V73.704H255.458V71.592C255.458 71.1013 255.404 70.728 255.298 70.472C255.212 70.1947 255.074 70.0027 254.882 69.896C254.711 69.7893 254.498 69.736 254.242 69.736C253.986 69.736 253.772 69.8107 253.602 69.96C253.431 70.088 253.303 70.312 253.218 70.632C253.132 70.9307 253.09 71.3573 253.09 71.912V79.592C253.09 80.424 253.186 80.9893 253.378 81.288C253.591 81.5867 253.89 81.736 254.274 81.736C254.551 81.736 254.775 81.6827 254.946 81.576C255.116 81.448 255.244 81.256 255.33 81C255.415 80.7227 255.458 80.36 255.458 79.912V77.448H260.482V79.688C260.482 80.9253 260.226 81.9707 259.714 82.824C259.223 83.656 258.508 84.2853 257.57 84.712C256.652 85.1173 255.543 85.32 254.242 85.32Z" fill="white"/>
<path d="M263.227 85V59.08H268.41V68.136C269.093 67.4533 269.808 66.9627 270.555 66.664C271.301 66.344 272.101 66.184 272.954 66.184C273.701 66.184 274.32 66.376 274.81 66.76C275.322 67.1227 275.706 67.6347 275.962 68.296C276.219 68.936 276.346 69.672 276.346 70.504V85H271.163V71.24C271.163 70.792 271.088 70.4507 270.939 70.216C270.789 69.9813 270.512 69.864 270.107 69.864C269.893 69.864 269.637 69.928 269.339 70.056C269.04 70.1627 268.73 70.3227 268.41 70.536V85H263.227Z" fill="white"/>
<path d="M283.284 85.32C282.345 85.32 281.556 85.096 280.916 84.648C280.276 84.2 279.796 83.6347 279.476 82.952C279.156 82.248 278.996 81.5333 278.996 80.808C278.996 79.656 279.22 78.6853 279.668 77.896C280.137 77.1067 280.745 76.4453 281.492 75.912C282.238 75.3787 283.06 74.9307 283.956 74.568C284.852 74.184 285.737 73.8427 286.612 73.544V71.688C286.612 71.368 286.58 71.0907 286.516 70.856C286.452 70.6 286.345 70.408 286.196 70.28C286.046 70.1307 285.822 70.056 285.524 70.056C285.225 70.056 284.99 70.12 284.82 70.248C284.67 70.376 284.564 70.5573 284.5 70.792C284.436 71.0053 284.393 71.2507 284.372 71.528L284.244 72.872L279.38 72.68C279.486 70.4613 280.073 68.8293 281.14 67.784C282.228 66.7173 283.849 66.184 286.004 66.184C287.881 66.184 289.278 66.7067 290.196 67.752C291.134 68.776 291.604 70.1093 291.604 71.752V80.392C291.604 81.16 291.614 81.832 291.636 82.408C291.678 82.984 291.721 83.4853 291.764 83.912C291.828 84.3387 291.881 84.7013 291.924 85H287.252C287.188 84.5093 287.113 83.976 287.028 83.4C286.942 82.824 286.878 82.4827 286.836 82.376C286.622 83.144 286.217 83.8267 285.62 84.424C285.044 85.0213 284.265 85.32 283.284 85.32ZM285.14 81.8C285.353 81.8 285.545 81.7573 285.716 81.672C285.908 81.5867 286.078 81.4693 286.228 81.32C286.377 81.1707 286.505 81.0213 286.612 80.872V75.816C286.185 76.072 285.79 76.3387 285.428 76.616C285.065 76.872 284.756 77.16 284.5 77.48C284.244 77.8 284.041 78.152 283.892 78.536C283.764 78.8987 283.7 79.3147 283.7 79.784C283.7 80.4027 283.828 80.8933 284.084 81.256C284.34 81.6187 284.692 81.8 285.14 81.8Z" fill="white"/>
<path d="M295.366 85V70.024H293.607V66.504H295.366V65.128C295.366 64.04 295.473 63.0907 295.686 62.28C295.921 61.4693 296.391 60.84 297.095 60.392C297.82 59.944 298.929 59.72 300.422 59.72C300.828 59.72 301.223 59.7307 301.607 59.752C302.012 59.7733 302.449 59.816 302.918 59.88V63.752C302.769 63.7093 302.588 63.6773 302.375 63.656C302.183 63.6133 301.99 63.592 301.798 63.592C301.414 63.592 301.116 63.7093 300.902 63.944C300.689 64.1573 300.582 64.52 300.582 65.032V66.504H302.918V70.024H300.582V85H295.366Z" fill="white"/>
<path d="M310.672 85.192C309.286 85.192 308.208 84.9893 307.44 84.584C306.694 84.1787 306.182 83.592 305.905 82.824C305.627 82.0347 305.488 81.0853 305.488 79.976V69.928H303.697V66.504H305.488V60.872H310.768V66.504H313.392V69.928H310.768V79.464C310.768 79.9973 310.918 80.3813 311.216 80.616C311.536 80.8507 311.931 80.968 312.401 80.968C312.678 80.968 312.934 80.9573 313.168 80.936C313.403 80.8933 313.617 80.8613 313.809 80.84V84.936C313.531 84.9787 313.094 85.032 312.496 85.096C311.899 85.16 311.291 85.192 310.672 85.192Z" fill="white"/>
<path d="M328.189 85L323.517 59.08H328.413L331.197 76.68L333.789 59.08H338.973L334.237 85H328.189Z" fill="white"/>
<path d="M341.32 85V66.504H346.536V85H341.32ZM341.288 63.368V59.752H346.536V63.368H341.288Z" fill="white"/>
<path d="M349.981 85V59.08H355.165V85H349.981Z" fill="white"/>
<path d="M358.762 85V59.08H363.946V85H358.762Z" fill="white"/>
<path d="M367.352 85V66.504H372.568V85H367.352ZM367.319 63.368V59.752H372.568V63.368H367.319Z" fill="white"/>
<path d="M375.788 85V66.504H381.004V68.36C381.687 67.6773 382.391 67.144 383.116 66.76C383.863 66.376 384.642 66.184 385.452 66.184C386.22 66.184 386.85 66.376 387.34 66.76C387.852 67.1227 388.236 67.6347 388.492 68.296C388.748 68.936 388.876 69.672 388.876 70.504V85H383.692V71.24C383.692 70.792 383.618 70.4507 383.468 70.216C383.319 69.9813 383.042 69.864 382.636 69.864C382.423 69.864 382.167 69.928 381.868 70.056C381.591 70.1627 381.303 70.3227 381.004 70.536V85H375.788Z" fill="white"/>
<path d="M398.023 91.4C396.636 91.4 395.431 91.2613 394.407 90.984C393.383 90.7067 392.583 90.2907 392.007 89.736C391.452 89.1813 391.175 88.4773 391.175 87.624C391.175 87.048 391.292 86.5253 391.527 86.056C391.783 85.608 392.124 85.2133 392.551 84.872C392.999 84.5093 393.5 84.2 394.055 83.944C393.244 83.7093 392.615 83.3573 392.167 82.888C391.719 82.4187 391.495 81.7893 391.495 81C391.495 80.2533 391.676 79.6133 392.039 79.08C392.402 78.5253 392.903 77.9707 393.543 77.416C392.946 76.8827 392.487 76.232 392.167 75.464C391.868 74.6747 391.719 73.7253 391.719 72.616C391.719 71.2293 391.975 70.056 392.487 69.096C392.999 68.136 393.746 67.4107 394.727 66.92C395.73 66.4293 396.935 66.184 398.343 66.184C399.303 66.184 400.146 66.3013 400.871 66.536C401.596 66.7707 402.215 67.1333 402.727 67.624C402.962 67.2613 403.271 66.9093 403.655 66.568C404.039 66.2267 404.476 65.9387 404.967 65.704L405.639 65.384L406.855 67.88C406.663 67.944 406.396 68.0507 406.055 68.2C405.714 68.3493 405.351 68.5093 404.967 68.68C404.604 68.8507 404.274 69.0213 403.975 69.192C404.21 69.6613 404.391 70.1947 404.519 70.792C404.647 71.3893 404.711 72.008 404.711 72.648C404.711 73.9707 404.466 75.112 403.975 76.072C403.506 77.032 402.802 77.768 401.863 78.28C400.924 78.7707 399.751 79.016 398.343 79.016C397.746 79.016 397.18 78.9733 396.647 78.888C396.114 78.7813 395.623 78.6533 395.175 78.504C395.047 78.6747 394.93 78.856 394.823 79.048C394.738 79.2187 394.695 79.4107 394.695 79.624C394.695 79.88 394.823 80.0827 395.079 80.232C395.335 80.3813 395.794 80.4987 396.455 80.584L401.319 81.128C402.898 81.2987 404.06 81.8107 404.807 82.664C405.554 83.496 405.927 84.5947 405.927 85.96C405.927 87.1333 405.66 88.1253 405.127 88.936C404.615 89.7467 403.772 90.3547 402.599 90.76C401.447 91.1867 399.922 91.4 398.023 91.4ZM398.695 87.624C399.868 87.624 400.764 87.528 401.383 87.336C402.023 87.144 402.343 86.7493 402.343 86.152C402.343 85.8533 402.258 85.608 402.087 85.416C401.916 85.2453 401.628 85.1067 401.223 85C400.839 84.872 400.284 84.776 399.559 84.712L396.135 84.36C395.922 84.5093 395.73 84.68 395.559 84.872C395.41 85.0427 395.282 85.224 395.175 85.416C395.09 85.6293 395.047 85.8533 395.047 86.088C395.047 86.6 395.324 86.984 395.879 87.24C396.434 87.496 397.372 87.624 398.695 87.624ZM398.343 75.912C398.642 75.912 398.887 75.8587 399.079 75.752C399.271 75.624 399.41 75.432 399.495 75.176C399.602 74.92 399.676 74.5787 399.719 74.152C399.762 73.7253 399.783 73.2133 399.783 72.616C399.783 71.9973 399.762 71.4853 399.719 71.08C399.676 70.6533 399.602 70.312 399.495 70.056C399.41 69.7787 399.271 69.5867 399.079 69.48C398.887 69.352 398.642 69.288 398.343 69.288C398.044 69.288 397.799 69.352 397.607 69.48C397.415 69.5867 397.266 69.768 397.159 70.024C397.074 70.28 397.01 70.6213 396.967 71.048C396.924 71.4747 396.903 71.9973 396.903 72.616C396.903 73.2133 396.924 73.7253 396.967 74.152C397.01 74.5573 397.074 74.8987 397.159 75.176C397.266 75.432 397.415 75.624 397.607 75.752C397.799 75.8587 398.044 75.912 398.343 75.912Z" fill="white"/>
<path d="M414.055 85.32C412.711 85.32 411.559 85.0853 410.599 84.616C409.639 84.1253 408.903 83.4213 408.391 82.504C407.879 81.5653 407.623 80.4453 407.623 79.144V72.36C407.623 71.0373 407.879 69.9173 408.391 69C408.903 68.0827 409.639 67.3893 410.599 66.92C411.58 66.4293 412.732 66.184 414.055 66.184C415.42 66.184 416.551 66.4187 417.447 66.888C418.364 67.3573 419.047 68.0507 419.495 68.968C419.964 69.8853 420.199 71.016 420.199 72.36V76.072H412.775V79.624C412.775 80.0933 412.828 80.4773 412.935 80.776C413.042 81.0747 413.191 81.288 413.383 81.416C413.575 81.544 413.799 81.608 414.055 81.608C414.311 81.608 414.535 81.5547 414.727 81.448C414.94 81.32 415.1 81.128 415.207 80.872C415.335 80.616 415.399 80.264 415.399 79.816V77.864H420.199V79.656C420.199 81.5333 419.655 82.952 418.567 83.912C417.479 84.8507 415.975 85.32 414.055 85.32ZM412.775 73.64H415.399V71.784C415.399 71.2933 415.335 70.9093 415.207 70.632C415.1 70.3547 414.94 70.1627 414.727 70.056C414.535 69.9493 414.3 69.896 414.023 69.896C413.767 69.896 413.543 69.96 413.351 70.088C413.18 70.216 413.042 70.44 412.935 70.76C412.828 71.0587 412.775 71.496 412.775 72.072V73.64Z" fill="white"/>
<path d="M423.038 85V66.504H428.254V68.36C428.937 67.6773 429.641 67.144 430.366 66.76C431.113 66.376 431.892 66.184 432.702 66.184C433.47 66.184 434.1 66.376 434.59 66.76C435.102 67.1227 435.486 67.6347 435.742 68.296C435.998 68.936 436.126 69.672 436.126 70.504V85H430.942V71.24C430.942 70.792 430.868 70.4507 430.718 70.216C430.569 69.9813 430.292 69.864 429.886 69.864C429.673 69.864 429.417 69.928 429.118 70.056C428.841 70.1627 428.553 70.3227 428.254 70.536V85H423.038Z" fill="white"/>
<path d="M450.708 85.32C449.962 85.32 449.322 85.1387 448.789 84.776C448.277 84.392 447.893 83.8693 447.637 83.208C447.38 82.5467 447.253 81.8107 447.253 81V66.504H452.469V80.392C452.469 80.84 452.543 81.192 452.693 81.448C452.863 81.6827 453.151 81.8 453.556 81.8C453.791 81.8 454.036 81.7467 454.293 81.64C454.549 81.512 454.815 81.3733 455.092 81.224V66.504H460.276V85H455.092V83.304C454.431 83.9227 453.727 84.4133 452.98 84.776C452.255 85.1387 451.498 85.32 450.708 85.32Z" fill="white"/>
<path d="M463.569 85V66.504H468.785V68.36C469.468 67.6773 470.172 67.144 470.897 66.76C471.644 66.376 472.423 66.184 473.233 66.184C474.001 66.184 474.631 66.376 475.121 66.76C475.633 67.1227 476.017 67.6347 476.273 68.296C476.53 68.936 476.658 69.672 476.658 70.504V85H471.474V71.24C471.474 70.792 471.399 70.4507 471.25 70.216C471.1 69.9813 470.823 69.864 470.418 69.864C470.204 69.864 469.948 69.928 469.65 70.056C469.372 70.1627 469.084 70.3227 468.785 70.536V85H463.569Z" fill="white"/>
<path d="M485.484 85.32C483.863 85.32 482.508 84.9573 481.42 84.232C480.354 83.5067 479.479 82.3227 478.796 80.68L482.348 79.112C482.69 79.944 483.084 80.6053 483.532 81.096C484.002 81.5653 484.514 81.8 485.068 81.8C485.474 81.8 485.772 81.7147 485.964 81.544C486.178 81.3733 486.284 81.1387 486.284 80.84C486.284 80.3493 486.092 79.9013 485.708 79.496C485.346 79.0907 484.684 78.4933 483.724 77.704L482.38 76.584C481.399 75.752 480.62 74.952 480.044 74.184C479.49 73.3947 479.212 72.424 479.212 71.272C479.212 70.2693 479.468 69.384 479.98 68.616C480.514 67.848 481.218 67.2507 482.092 66.824C482.967 66.3973 483.906 66.184 484.908 66.184C486.423 66.184 487.692 66.6 488.716 67.432C489.74 68.264 490.455 69.4373 490.86 70.952L487.5 72.488C487.372 72.0827 487.191 71.6773 486.956 71.272C486.722 70.8667 486.434 70.5253 486.092 70.248C485.772 69.9707 485.42 69.832 485.036 69.832C484.695 69.832 484.418 69.928 484.204 70.12C484.012 70.312 483.916 70.568 483.916 70.888C483.916 71.2933 484.14 71.7307 484.588 72.2C485.058 72.6693 485.698 73.2347 486.508 73.896L487.82 75.048C488.354 75.496 488.876 75.976 489.388 76.488C489.9 77 490.316 77.5653 490.636 78.184C490.978 78.8027 491.148 79.5067 491.148 80.296C491.148 81.3627 490.882 82.28 490.348 83.048C489.815 83.7947 489.111 84.36 488.236 84.744C487.383 85.128 486.466 85.32 485.484 85.32Z" fill="white"/>
<path d="M499.399 85.32C498.055 85.32 496.903 85.0853 495.943 84.616C494.983 84.1253 494.247 83.4213 493.735 82.504C493.223 81.5653 492.967 80.4453 492.967 79.144V72.36C492.967 71.0373 493.223 69.9173 493.735 69C494.247 68.0827 494.983 67.3893 495.943 66.92C496.924 66.4293 498.076 66.184 499.399 66.184C500.764 66.184 501.895 66.4187 502.791 66.888C503.708 67.3573 504.391 68.0507 504.839 68.968C505.308 69.8853 505.543 71.016 505.543 72.36V76.072H498.119V79.624C498.119 80.0933 498.172 80.4773 498.279 80.776C498.385 81.0747 498.535 81.288 498.727 81.416C498.919 81.544 499.143 81.608 499.399 81.608C499.655 81.608 499.879 81.5547 500.071 81.448C500.284 81.32 500.444 81.128 500.551 80.872C500.679 80.616 500.743 80.264 500.743 79.816V77.864H505.543V79.656C505.543 81.5333 504.999 82.952 503.911 83.912C502.823 84.8507 501.319 85.32 499.399 85.32ZM498.119 73.64H500.743V71.784C500.743 71.2933 500.679 70.9093 500.551 70.632C500.444 70.3547 500.284 70.1627 500.071 70.056C499.879 69.9493 499.644 69.896 499.367 69.896C499.111 69.896 498.887 69.96 498.695 70.088C498.524 70.216 498.385 70.44 498.279 70.76C498.172 71.0587 498.119 71.496 498.119 72.072V73.64Z" fill="white"/>
<path d="M508.446 85V66.504H513.662V69.576C514.259 68.5093 514.857 67.6987 515.454 67.144C516.051 66.568 516.777 66.28 517.63 66.28C517.801 66.28 517.95 66.2907 518.078 66.312C518.206 66.312 518.323 66.3333 518.43 66.376V71.56C518.195 71.4533 517.929 71.368 517.63 71.304C517.353 71.2187 517.054 71.176 516.734 71.176C516.137 71.176 515.582 71.336 515.07 71.656C514.558 71.976 514.089 72.4133 513.662 72.968V85H508.446Z" fill="white"/>
<path d="M528.115 85V81.544L534.451 62.952H528.404V59.08H540.083V62.312L533.651 81.128H540.148V85H528.115Z" fill="white"/>
<path d="M545.927 85.32C545.181 85.32 544.541 85.1387 544.007 84.776C543.495 84.392 543.111 83.8693 542.855 83.208C542.599 82.5467 542.471 81.8107 542.471 81V66.504H547.687V80.392C547.687 80.84 547.762 81.192 547.911 81.448C548.082 81.6827 548.37 81.8 548.775 81.8C549.01 81.8 549.255 81.7467 549.511 81.64C549.767 81.512 550.034 81.3733 550.311 81.224V66.504H555.495V85H550.311V83.304C549.65 83.9227 548.946 84.4133 548.199 84.776C547.474 85.1387 546.717 85.32 545.927 85.32Z" fill="white"/>
<path d="M558.82 85V59.08H564.004V68.136C564.687 67.4533 565.402 66.9627 566.148 66.664C566.895 66.344 567.695 66.184 568.548 66.184C569.295 66.184 569.914 66.376 570.404 66.76C570.916 67.1227 571.3 67.6347 571.556 68.296C571.812 68.936 571.94 69.672 571.94 70.504V85H566.756V71.24C566.756 70.792 566.682 70.4507 566.532 70.216C566.383 69.9813 566.106 69.864 565.7 69.864C565.487 69.864 565.231 69.928 564.932 70.056C564.634 70.1627 564.324 70.3227 564.004 70.536V85H558.82Z" fill="white"/>
<path d="M578.878 85.32C577.939 85.32 577.15 85.096 576.51 84.648C575.87 84.2 575.39 83.6347 575.07 82.952C574.75 82.248 574.589 81.5333 574.589 80.808C574.589 79.656 574.813 78.6853 575.261 77.896C575.731 77.1067 576.339 76.4453 577.086 75.912C577.832 75.3787 578.654 74.9307 579.549 74.568C580.445 74.184 581.331 73.8427 582.206 73.544V71.688C582.206 71.368 582.174 71.0907 582.109 70.856C582.045 70.6 581.939 70.408 581.789 70.28C581.64 70.1307 581.416 70.056 581.117 70.056C580.819 70.056 580.584 70.12 580.414 70.248C580.264 70.376 580.158 70.5573 580.094 70.792C580.029 71.0053 579.987 71.2507 579.966 71.528L579.838 72.872L574.974 72.68C575.08 70.4613 575.667 68.8293 576.734 67.784C577.822 66.7173 579.443 66.184 581.597 66.184C583.475 66.184 584.872 66.7067 585.789 67.752C586.728 68.776 587.198 70.1093 587.198 71.752V80.392C587.198 81.16 587.208 81.832 587.229 82.408C587.272 82.984 587.315 83.4853 587.357 83.912C587.422 84.3387 587.475 84.7013 587.518 85H582.846C582.781 84.5093 582.707 83.976 582.622 83.4C582.536 82.824 582.472 82.4827 582.43 82.376C582.216 83.144 581.811 83.8267 581.214 84.424C580.638 85.0213 579.859 85.32 578.878 85.32ZM580.734 81.8C580.947 81.8 581.139 81.7573 581.31 81.672C581.502 81.5867 581.672 81.4693 581.821 81.32C581.971 81.1707 582.099 81.0213 582.206 80.872V75.816C581.779 76.072 581.384 76.3387 581.021 76.616C580.659 76.872 580.349 77.16 580.094 77.48C579.838 77.8 579.635 78.152 579.485 78.536C579.357 78.8987 579.294 79.3147 579.294 79.784C579.294 80.4027 579.422 80.8933 579.677 81.256C579.933 81.6187 580.286 81.8 580.734 81.8Z" fill="white"/>
<path d="M593.552 85.32C592.806 85.32 592.166 85.1387 591.632 84.776C591.12 84.392 590.736 83.8693 590.48 83.208C590.224 82.5467 590.096 81.8107 590.096 81V66.504H595.312V80.392C595.312 80.84 595.387 81.192 595.536 81.448C595.707 81.6827 595.995 81.8 596.4 81.8C596.635 81.8 596.88 81.7467 597.136 81.64C597.392 81.512 597.659 81.3733 597.936 81.224V66.504H603.12V85H597.936V83.304C597.275 83.9227 596.571 84.4133 595.824 84.776C595.099 85.1387 594.342 85.32 593.552 85.32Z" fill="white"/>
<path d="M612.109 85.32C610.488 85.32 609.133 84.9573 608.045 84.232C606.979 83.5067 606.104 82.3227 605.421 80.68L608.973 79.112C609.315 79.944 609.709 80.6053 610.157 81.096C610.627 81.5653 611.139 81.8 611.693 81.8C612.099 81.8 612.397 81.7147 612.589 81.544C612.803 81.3733 612.909 81.1387 612.909 80.84C612.909 80.3493 612.717 79.9013 612.333 79.496C611.971 79.0907 611.309 78.4933 610.349 77.704L609.005 76.584C608.024 75.752 607.245 74.952 606.669 74.184C606.115 73.3947 605.837 72.424 605.837 71.272C605.837 70.2693 606.093 69.384 606.605 68.616C607.139 67.848 607.843 67.2507 608.717 66.824C609.592 66.3973 610.531 66.184 611.533 66.184C613.048 66.184 614.317 66.6 615.341 67.432C616.365 68.264 617.08 69.4373 617.485 70.952L614.125 72.488C613.997 72.0827 613.816 71.6773 613.581 71.272C613.347 70.8667 613.059 70.5253 612.717 70.248C612.397 69.9707 612.045 69.832 611.661 69.832C611.32 69.832 611.043 69.928 610.829 70.12C610.637 70.312 610.541 70.568 610.541 70.888C610.541 71.2933 610.765 71.7307 611.213 72.2C611.683 72.6693 612.323 73.2347 613.133 73.896L614.445 75.048C614.979 75.496 615.501 75.976 616.013 76.488C616.525 77 616.941 77.5653 617.261 78.184C617.603 78.8027 617.773 79.5067 617.773 80.296C617.773 81.3627 617.507 82.28 616.973 83.048C616.44 83.7947 615.736 84.36 614.861 84.744C614.008 85.128 613.091 85.32 612.109 85.32Z" fill="white"/>
<path d="M626.024 85.32C624.68 85.32 623.528 85.0853 622.568 84.616C621.608 84.1253 620.872 83.4213 620.36 82.504C619.848 81.5653 619.592 80.4453 619.592 79.144V72.36C619.592 71.0373 619.848 69.9173 620.36 69C620.872 68.0827 621.608 67.3893 622.568 66.92C623.549 66.4293 624.701 66.184 626.024 66.184C627.389 66.184 628.52 66.4187 629.416 66.888C630.333 67.3573 631.016 68.0507 631.464 68.968C631.933 69.8853 632.168 71.016 632.168 72.36V76.072H624.744V79.624C624.744 80.0933 624.797 80.4773 624.904 80.776C625.01 81.0747 625.16 81.288 625.352 81.416C625.544 81.544 625.768 81.608 626.024 81.608C626.28 81.608 626.504 81.5547 626.696 81.448C626.909 81.32 627.069 81.128 627.176 80.872C627.304 80.616 627.368 80.264 627.368 79.816V77.864H632.168V79.656C632.168 81.5333 631.624 82.952 630.536 83.912C629.448 84.8507 627.944 85.32 626.024 85.32ZM624.744 73.64H627.368V71.784C627.368 71.2933 627.304 70.9093 627.176 70.632C627.069 70.3547 626.909 70.1627 626.696 70.056C626.504 69.9493 626.269 69.896 625.992 69.896C625.736 69.896 625.512 69.96 625.32 70.088C625.149 70.216 625.01 70.44 624.904 70.76C624.797 71.0587 624.744 71.496 624.744 72.072V73.64Z" fill="white"/>
</svg>
