<svg width="19" height="19" viewBox="0 0 19 19" fill="none" xmlns="http://www.w3.org/2000/svg">
<path d="M9.5 1.71687C12.0181 1.71687 12.3614 1.71687 13.3916 1.71687C14.3072 1.71687 14.7651 1.94578 15.1084 2.06024C15.5663 2.28916 15.9096 2.40362 16.253 2.74699C16.5964 3.09036 16.8253 3.43374 16.9398 3.89157C17.0542 4.23494 17.1687 4.69277 17.2831 5.60844C17.2831 6.63856 17.2831 6.86747 17.2831 9.5C17.2831 12.1325 17.2831 12.3614 17.2831 13.3916C17.2831 14.3072 17.0542 14.7651 16.9398 15.1084C16.7108 15.5663 16.5964 15.9096 16.253 16.253C15.9096 16.5964 15.5663 16.8253 15.1084 16.9398C14.7651 17.0542 14.3072 17.1687 13.3916 17.2831C12.3614 17.2831 12.1325 17.2831 9.5 17.2831C6.86747 17.2831 6.63856 17.2831 5.60844 17.2831C4.69277 17.2831 4.23494 17.0542 3.89157 16.9398C3.43374 16.7108 3.09036 16.5964 2.74699 16.253C2.40362 15.9096 2.1747 15.5663 2.06024 15.1084C1.94578 14.7651 1.83133 14.3072 1.71687 13.3916C1.71687 12.3614 1.71687 12.1325 1.71687 9.5C1.71687 6.86747 1.71687 6.63856 1.71687 5.60844C1.71687 4.69277 1.94578 4.23494 2.06024 3.89157C2.28916 3.43374 2.40362 3.09036 2.74699 2.74699C3.09036 2.40362 3.43374 2.1747 3.89157 2.06024C4.23494 1.94578 4.69277 1.83133 5.60844 1.71687C6.63856 1.71687 6.98193 1.71687 9.5 1.71687ZM9.5 0C6.86747 0 6.63856 0 5.60844 0C4.57831 0 3.89157 0.228916 3.31928 0.457832C2.74699 0.686748 2.1747 1.03012 1.60241 1.60241C1.03012 2.1747 0.801206 2.63253 0.457832 3.31928C0.228916 3.89157 0.114458 4.57831 0 5.60844C0 6.63856 0 6.98193 0 9.5C0 12.1325 0 12.3614 0 13.3916C0 14.4217 0.228916 15.1084 0.457832 15.6807C0.686748 16.253 1.03012 16.8253 1.60241 17.3976C2.1747 17.9699 2.63253 18.1988 3.31928 18.5422C3.89157 18.7711 4.57831 18.8855 5.60844 19C6.63856 19 6.98193 19 9.5 19C12.0181 19 12.3614 19 13.3916 19C14.4217 19 15.1084 18.7711 15.6807 18.5422C16.253 18.3133 16.8253 17.9699 17.3976 17.3976C17.9699 16.8253 18.1988 16.3675 18.5422 15.6807C18.7711 15.1084 18.8855 14.4217 19 13.3916C19 12.3614 19 12.0181 19 9.5C19 6.98193 19 6.63856 19 5.60844C19 4.57831 18.7711 3.89157 18.5422 3.31928C18.3133 2.74699 17.9699 2.1747 17.3976 1.60241C16.8253 1.03012 16.3675 0.801206 15.6807 0.457832C15.1084 0.228916 14.4217 0.114458 13.3916 0C12.3614 0 12.1325 0 9.5 0Z" fill="white"/>
<path d="M9.5 4.57831C6.75301 4.57831 4.57831 6.75301 4.57831 9.5C4.57831 12.247 6.75301 14.4217 9.5 14.4217C12.247 14.4217 14.4217 12.247 14.4217 9.5C14.4217 6.75301 12.247 4.57831 9.5 4.57831ZM9.5 12.7048C7.78313 12.7048 6.29518 11.3313 6.29518 9.5C6.29518 7.78313 7.66868 6.29518 9.5 6.29518C11.2169 6.29518 12.7048 7.66868 12.7048 9.5C12.7048 11.2169 11.2169 12.7048 9.5 12.7048Z" fill="white"/>
<path d="M14.5361 5.60844C15.1683 5.60844 15.6807 5.09599 15.6807 4.46386C15.6807 3.83172 15.1683 3.31928 14.5361 3.31928C13.904 3.31928 13.3916 3.83172 13.3916 4.46386C13.3916 5.09599 13.904 5.60844 14.5361 5.60844Z" fill="white"/>
</svg>
