<svg width="35" height="35" viewBox="0 0 35 35" fill="none" xmlns="http://www.w3.org/2000/svg">
<path d="M17.4996 34.9991C27.1643 34.9991 34.9991 27.1643 34.9991 17.4996C34.9991 7.83483 27.1643 0 17.4996 0C7.83483 0 0 7.83483 0 17.4996C0 27.1643 7.83483 34.9991 17.4996 34.9991Z" fill="#E5ED10"/>
<path d="M26.6558 2.57284C28.4581 5.3859 29.4132 8.65803 29.4071 11.9989C29.4071 21.6637 21.5723 29.4985 11.9076 29.4985C8.67506 29.5035 5.50496 28.6086 2.75213 26.9142C4.334 29.3908 6.51451 31.4288 9.09223 32.8399C11.6699 34.251 14.5617 34.9896 17.5004 34.9877C27.162 34.9877 35 27.1529 35 17.4881C35.0014 14.4958 34.235 11.5531 32.7741 8.9417C31.3132 6.33025 29.2066 4.13737 26.6558 2.57284Z" fill="#E0E812"/>
<path d="M2.37872 19.0499C2.37872 10.0774 9.65304 2.80249 18.6261 2.80249C21.1157 2.80057 23.5724 3.37174 25.8058 4.47174C28.0392 5.57174 29.9894 7.17107 31.5054 9.14585C30.0816 6.66812 28.0292 4.60991 25.5556 3.17901C23.0819 1.74811 20.2745 0.995179 17.4168 0.996227C8.44374 0.996227 1.16942 8.27055 1.16942 17.2436C1.1641 20.8269 2.34879 24.3105 4.53753 27.1477C3.11893 24.685 2.37432 21.892 2.37872 19.0499Z" fill="#F4FC11"/>
<mask id="mask0_0_609" style="mask-type:luminance" maskUnits="userSpaceOnUse" x="0" y="0" width="35" height="35">
<path d="M17.4997 34.9991C27.1644 34.9991 34.9993 27.1643 34.9993 17.4996C34.9993 7.83483 27.1644 0 17.4997 0C7.83495 0 0.000122067 7.83483 0.000122067 17.4996C0.000122067 27.1643 7.83495 34.9991 17.4997 34.9991Z" fill="white"/>
</mask>
<g mask="url(#mask0_0_609)">
<path d="M4.97819 31.2249L3.87063 30.0316C5.2833 28.7239 6.46049 27.1829 7.35071 25.476C9.12114 22.0848 9.66628 18.1281 8.88632 14.3294C8.15754 10.7501 6.16573 7.43384 3.29094 4.99093L4.34347 3.75157C7.49467 6.42801 9.6746 10.0687 10.4821 14.0024C11.3375 18.1671 10.738 22.5123 8.79482 26.2291C7.81846 28.1009 6.52742 29.7908 4.97819 31.2249Z" fill="white"/>
<path d="M31.1918 31.2249C29.6426 29.7907 28.3515 28.1008 27.3752 26.229C25.432 22.509 24.8331 18.1671 25.6879 14.0024C26.4954 10.0686 28.6753 6.42796 31.8265 3.75152L32.8791 4.99088C30.0043 7.43379 28.0163 10.7494 27.2811 14.3325C26.5012 18.1306 27.0469 22.0893 28.8167 25.4785C29.7072 27.1852 30.8843 28.7262 32.2968 30.0342L31.1918 31.2249Z" fill="white"/>
</g>
<path d="M5.50905 28.2874C5.22198 28.641 4.92083 28.9822 4.6056 29.3111C4.97201 29.7104 5.35592 30.0924 5.75731 30.4571C6.24966 29.9444 6.71177 29.4034 7.14128 28.837C6.5859 28.6813 6.04182 28.4981 5.50905 28.2874Z" fill="#F0F0EF"/>
<path d="M30.9744 28.657C30.1361 27.6827 29.4126 26.6153 28.8181 25.4757C28.0156 23.9357 27.4605 22.2789 27.1731 20.5662C26.7995 21.2312 26.3827 21.8709 25.9254 22.4813C26.2683 23.7805 26.7551 25.0374 27.3765 26.2288C28.0595 27.5373 28.8973 28.759 29.8719 29.8676C30.2575 29.482 30.625 29.0784 30.9744 28.657Z" fill="#F0F0EF"/>
</svg>
