<svg width="19" height="15" viewBox="0 0 19 15" fill="none" xmlns="http://www.w3.org/2000/svg">
<path d="M18.8464 1.82694C18.1733 2.1154 17.4041 2.30772 16.6348 2.40387C17.4041 1.9231 18.0771 1.15386 18.3656 0.288468C17.5964 0.769243 16.8271 1.05771 15.8656 1.25002C15.1925 0.480778 14.1348 0 13.0771 0C10.9617 0 9.23087 1.73079 9.23087 3.8462C9.23087 4.13466 9.23088 4.42312 9.32703 4.71159C6.15392 4.51928 3.26926 2.9808 1.34616 0.673082C1.0577 1.25001 0.865389 1.9231 0.865389 2.59618C0.865389 3.94235 1.53848 5.09621 2.59618 5.7693C1.9231 5.7693 1.34616 5.57699 0.865389 5.28852C0.865389 7.11547 2.21156 8.7501 3.94235 9.03856C3.65388 9.13472 3.26927 9.13472 2.88465 9.13472C2.59618 9.13472 2.40387 9.13472 2.11541 9.03856C2.59618 10.577 4.03851 11.7309 5.7693 11.7309C4.42313 12.7886 2.78849 13.3655 0.96155 13.3655C0.673085 13.3655 0.38462 13.3655 0 13.2694C1.73079 14.3271 3.75004 15.0002 5.96161 15.0002C13.0771 15.0002 16.9233 9.13472 16.9233 4.03851V3.55773C17.6925 3.26927 18.3656 2.59618 18.8464 1.82694Z" fill="white"/>
</svg>
