<svg width="21" height="15" viewBox="0 0 21 15" fill="none" xmlns="http://www.w3.org/2000/svg">
<path fill-rule="evenodd" clip-rule="evenodd" d="M2.15965 13.8951C1.78521 13.7843 1.44357 13.5873 1.16355 13.3205C0.883525 13.0538 0.673338 12.7252 0.550722 12.3625C-0.149939 10.4879 -0.357542 2.66025 0.991878 1.11498C1.44099 0.612291 2.07508 0.302799 2.75651 0.253679C6.37659 -0.126306 17.5612 -0.0756406 18.8458 0.380341C19.207 0.494762 19.5371 0.687516 19.8113 0.944161C20.0854 1.20081 20.2965 1.51468 20.4287 1.86228C21.1943 3.8002 21.2202 10.8426 20.3249 12.7045C20.0874 13.1892 19.6898 13.5818 19.1961 13.8191C17.8467 14.4778 3.95022 14.4651 2.15965 13.8951ZM7.90766 10.2219L14.3953 6.92874L7.90766 3.61021V10.2219Z" fill="white"/>
</svg>
